<svg id="svg" version="1.1" xmlns="http://www.w3.org/2000/svg" xmlns:xlink="http://www.w3.org/1999/xlink" width="400" height="309.5" viewBox="0, 0, 400,309.5"><g id="svgg"><path id="path0" d="M162.554 230.292 C 162.396 230.746,161.340 233.378,161.167 233.750 C 161.081 233.933,160.741 234.758,160.411 235.583 C 160.081 236.408,159.713 237.308,159.593 237.583 C 159.474 237.858,159.241 238.458,159.076 238.917 C 158.911 239.375,158.727 239.825,158.667 239.917 C 158.607 240.008,158.422 240.458,158.256 240.917 C 158.091 241.375,157.828 242.050,157.674 242.417 C 157.519 242.783,157.256 243.421,157.090 243.833 C 156.612 245.021,156.322 245.724,156.164 246.083 C 156.083 246.267,155.748 247.092,155.419 247.917 C 155.091 248.742,154.752 249.567,154.667 249.750 C 154.581 249.933,154.241 250.758,153.911 251.583 C 153.581 252.408,153.213 253.308,153.093 253.583 C 152.974 253.858,152.741 254.458,152.576 254.917 C 152.411 255.375,152.227 255.825,152.167 255.917 C 152.107 256.008,151.922 256.458,151.756 256.917 C 151.591 257.375,151.328 258.050,151.174 258.417 C 151.019 258.783,150.758 259.421,150.593 259.833 C 150.218 260.773,150.097 261.065,149.698 262.000 C 148.403 265.036,148.477 265.167,151.498 265.167 L 153.625 265.167 155.541 260.375 L 157.457 255.583 163.862 255.540 L 170.267 255.496 170.573 256.206 C 170.741 256.597,171.008 257.217,171.167 257.583 C 171.325 257.950,171.591 258.625,171.756 259.083 C 171.922 259.542,172.107 259.992,172.167 260.083 C 172.227 260.175,172.411 260.625,172.576 261.083 C 172.741 261.542,172.977 262.142,173.100 262.417 C 173.223 262.692,173.506 263.404,173.728 264.000 L 174.131 265.083 176.377 265.130 L 178.622 265.176 178.903 264.747 C 179.192 264.307,179.165 264.037,178.740 263.083 C 178.530 262.612,175.813 255.872,173.064 249.000 C 172.385 247.304,171.759 245.767,171.671 245.583 C 171.584 245.400,171.019 244.012,170.416 242.500 C 169.814 240.987,169.220 239.525,169.098 239.250 C 168.976 238.975,168.741 238.375,168.576 237.917 C 168.411 237.458,168.228 237.008,168.169 236.917 C 168.110 236.825,167.467 235.233,166.739 233.378 L 165.417 230.006 164.036 230.003 C 162.870 230.000,162.640 230.045,162.554 230.292 M49.700 230.771 C 47.969 231.147,45.142 232.778,44.659 233.680 C 44.573 233.842,44.394 234.083,44.261 234.215 C 42.736 235.741,42.089 239.533,42.921 242.080 C 43.894 245.061,45.448 246.457,50.457 248.850 C 54.297 250.685,54.247 250.658,55.293 251.500 C 60.644 255.807,54.589 263.814,48.416 260.596 C 48.141 260.452,47.829 260.335,47.722 260.334 C 47.615 260.334,47.503 260.277,47.472 260.208 C 47.442 260.140,47.094 259.864,46.700 259.596 C 45.873 259.035,44.783 257.733,44.281 256.708 C 43.942 256.017,43.887 255.985,42.923 255.931 C 42.789 255.923,42.320 256.225,41.881 256.603 C 41.442 256.980,40.864 257.476,40.595 257.703 L 40.107 258.117 40.815 259.547 C 42.846 263.646,46.278 265.584,51.500 265.582 C 55.320 265.581,57.049 264.938,59.340 262.667 C 64.555 257.497,63.076 249.741,56.214 246.266 C 55.181 245.743,54.566 245.455,51.833 244.211 C 48.757 242.811,47.500 241.364,47.500 239.223 C 47.500 234.543,53.867 233.568,57.565 237.681 C 58.752 239.002,59.383 238.758,61.466 236.170 L 61.799 235.756 61.282 235.037 C 58.821 231.610,54.006 229.836,49.700 230.771 M141.029 235.886 C 140.682 236.255,140.667 236.413,140.667 239.552 L 140.667 242.833 139.776 242.833 C 138.494 242.833,138.333 243.067,138.333 244.934 C 138.333 246.739,138.523 247.000,139.835 247.000 L 140.667 247.000 140.667 255.808 C 140.667 266.213,140.403 265.167,143.026 265.167 C 144.639 265.167,144.803 265.137,145.138 264.781 L 145.500 264.395 145.500 255.698 L 145.500 247.000 147.058 247.000 C 149.094 247.000,149.167 246.927,149.167 244.888 C 149.167 242.909,149.088 242.833,147.029 242.833 L 145.500 242.833 145.500 239.608 C 145.500 235.462,145.523 235.500,143.037 235.500 C 141.532 235.500,141.360 235.533,141.029 235.886 M164.660 241.333 C 164.877 241.929,165.105 242.492,165.167 242.583 C 165.228 242.675,165.453 243.237,165.667 243.833 C 165.880 244.429,166.104 244.992,166.165 245.083 C 166.226 245.175,166.411 245.625,166.576 246.083 C 166.741 246.542,166.976 247.142,167.099 247.417 C 167.360 248.003,168.500 250.997,168.500 251.098 C 168.500 251.136,166.438 251.167,163.917 251.167 C 159.012 251.167,159.111 251.185,159.551 250.333 C 159.669 250.104,159.943 249.429,160.160 248.833 C 160.377 248.237,160.605 247.675,160.667 247.583 C 160.728 247.492,160.953 246.929,161.167 246.333 C 161.380 245.737,161.604 245.175,161.665 245.083 C 161.726 244.992,161.911 244.542,162.076 244.083 C 162.241 243.625,162.475 243.025,162.597 242.750 C 162.719 242.475,162.976 241.838,163.168 241.333 C 163.978 239.213,163.888 239.213,164.660 241.333 M73.250 242.434 C 72.598 242.594,71.575 243.066,71.042 243.455 C 70.744 243.673,70.500 243.772,70.500 243.677 C 70.500 243.023,69.955 242.833,68.072 242.833 C 65.384 242.833,65.667 241.517,65.667 254.029 C 65.667 266.503,65.375 265.167,68.101 265.167 C 70.733 265.167,70.500 265.887,70.500 257.758 C 70.500 250.730,70.580 249.747,71.271 248.326 C 72.497 245.806,76.111 245.638,77.434 248.040 L 77.917 248.917 77.967 256.717 C 78.028 266.054,77.770 265.167,80.428 265.167 C 83.058 265.167,82.803 265.993,82.872 257.248 C 82.935 249.261,82.960 249.036,83.950 247.705 C 85.075 246.191,87.959 245.916,89.280 247.195 C 90.377 248.259,90.395 248.407,90.461 256.915 C 90.533 266.031,90.283 265.167,92.853 265.167 C 95.573 265.167,95.334 265.930,95.330 257.260 C 95.326 247.455,95.070 246.056,92.893 243.967 C 90.355 241.532,84.882 241.764,82.208 244.420 C 81.727 244.899,81.333 245.226,81.333 245.147 C 81.333 244.809,79.753 243.513,78.715 243.000 C 77.598 242.448,74.505 242.128,73.250 242.434 M106.333 242.586 C 104.152 243.178,101.767 244.847,100.238 246.855 C 97.931 249.882,97.625 255.965,99.583 259.863 C 102.468 265.608,109.888 267.519,115.276 263.905 L 116.333 263.196 116.333 263.906 C 116.333 265.018,116.612 265.167,118.696 265.167 C 121.265 265.167,121.000 266.454,121.000 253.971 C 121.000 241.516,121.279 242.833,118.638 242.833 C 116.595 242.833,116.333 242.982,116.333 244.138 L 116.333 244.833 115.542 244.270 C 114.654 243.638,113.714 243.141,112.640 242.736 C 111.603 242.344,107.579 242.248,106.333 242.586 M132.712 242.485 C 132.004 242.667,130.333 243.516,130.333 243.694 C 130.333 243.771,130.258 243.833,130.167 243.833 C 130.075 243.833,130.000 243.732,130.000 243.609 C 130.000 242.805,126.272 242.405,125.609 243.138 C 125.198 243.592,125.185 264.494,125.595 264.905 C 125.999 265.309,129.343 265.283,129.713 264.874 C 129.944 264.619,129.987 263.721,130.044 257.999 C 130.125 249.885,130.382 248.507,132.040 247.277 C 132.545 246.902,134.212 246.821,135.007 247.133 C 135.912 247.487,136.403 247.041,136.736 245.562 C 136.898 244.840,137.106 244.001,137.199 243.697 C 137.291 243.393,137.320 243.098,137.263 243.041 C 136.786 242.564,133.816 242.201,132.712 242.485 M190.583 242.403 C 190.492 242.436,189.979 242.593,189.445 242.752 C 188.350 243.076,186.804 243.858,186.271 244.357 L 185.917 244.689 185.833 244.097 C 185.675 242.972,185.403 242.833,183.361 242.833 C 180.698 242.833,181.000 240.641,181.000 259.970 C 181.000 279.343,180.704 277.167,183.341 277.167 C 186.051 277.167,185.833 277.806,185.833 269.850 L 185.833 263.305 186.625 263.862 C 190.511 266.598,196.392 266.266,199.931 263.111 C 203.332 260.080,204.796 253.906,203.139 249.583 C 201.764 245.996,199.759 243.978,196.333 242.733 C 195.645 242.483,191.079 242.221,190.583 242.403 M216.583 242.403 C 216.492 242.436,215.979 242.593,215.445 242.752 C 214.293 243.093,212.797 243.865,212.187 244.433 L 211.750 244.840 211.661 243.994 C 211.546 242.899,211.424 242.839,209.317 242.836 C 206.706 242.832,207.000 240.656,207.000 259.970 C 207.000 279.344,206.703 277.167,209.345 277.167 C 211.894 277.167,211.667 277.883,211.667 269.854 L 211.667 263.151 212.429 263.733 C 216.176 266.595,222.341 266.310,225.931 263.111 C 229.332 260.080,230.796 253.906,229.139 249.583 C 227.764 245.996,225.759 243.978,222.333 242.733 C 221.645 242.483,217.079 242.221,216.583 242.403 M237.083 242.689 C 234.624 243.575,233.201 245.226,232.829 247.624 C 232.279 251.166,234.140 253.493,238.917 255.239 C 241.465 256.170,242.833 257.352,242.833 258.622 C 242.833 261.250,239.554 262.615,237.020 261.042 C 236.495 260.716,234.833 259.064,234.833 258.868 C 234.833 258.227,233.412 257.734,232.932 258.208 C 232.817 258.323,232.334 258.745,231.861 259.145 C 230.885 259.972,230.881 259.983,231.329 260.906 C 232.111 262.515,233.774 264.079,235.667 264.985 L 236.917 265.583 239.417 265.581 C 244.382 265.577,247.378 262.855,247.394 258.333 C 247.404 255.297,245.865 253.445,241.984 251.825 C 239.954 250.979,239.614 250.827,238.917 250.465 C 237.631 249.798,237.293 249.355,237.378 248.451 C 237.595 246.128,240.542 245.539,242.618 247.404 C 243.925 248.578,244.413 248.535,245.761 247.131 L 246.852 245.994 246.511 245.515 C 244.558 242.772,240.351 241.511,237.083 242.689 M112.547 247.161 C 117.716 249.706,117.738 258.004,112.583 260.856 C 109.807 262.392,105.375 261.003,103.925 258.142 C 100.446 251.278,106.151 244.012,112.547 247.161 M194.667 246.963 C 197.884 248.113,199.830 251.774,199.097 255.300 C 197.386 263.531,187.185 263.519,185.726 255.283 C 184.722 249.614,189.540 245.130,194.667 246.963 M220.667 246.963 C 223.884 248.113,225.830 251.774,225.097 255.300 C 223.211 264.374,211.581 263.037,211.622 253.750 C 211.644 248.659,216.086 245.325,220.667 246.963 " stroke="none" fill="#14acc4" fill-rule="evenodd"></path><path id="path1" d="M332.750 33.846 C 330.937 34.059,330.636 34.110,329.833 34.339 C 329.421 34.457,328.971 34.560,328.833 34.569 C 328.356 34.597,327.000 35.074,327.000 35.213 C 327.000 35.290,326.928 35.309,326.840 35.254 C 326.752 35.200,326.546 35.225,326.382 35.310 C 326.029 35.492,325.119 35.886,325.000 35.908 C 324.859 35.934,322.550 37.107,321.917 37.474 C 321.733 37.580,321.415 37.740,321.208 37.830 C 321.002 37.919,320.833 38.073,320.833 38.172 C 320.833 38.272,320.758 38.306,320.665 38.249 C 320.573 38.192,320.453 38.263,320.398 38.406 C 320.343 38.549,320.227 38.667,320.142 38.667 C 319.994 38.667,318.419 39.794,317.813 40.333 C 316.291 41.688,314.833 43.087,314.833 43.192 C 314.833 43.263,314.627 43.535,314.375 43.796 C 314.123 44.057,313.767 44.480,313.583 44.737 C 313.400 44.994,313.156 45.302,313.042 45.423 C 312.927 45.544,312.833 45.689,312.833 45.745 C 312.833 45.801,312.757 45.938,312.664 46.049 C 311.986 46.852,311.833 47.078,311.833 47.276 C 311.833 47.399,311.765 47.500,311.680 47.500 C 311.596 47.500,311.399 47.837,311.241 48.250 C 311.084 48.663,310.885 49.000,310.801 49.000 C 310.716 49.000,310.693 49.075,310.750 49.167 C 310.807 49.258,310.774 49.333,310.677 49.333 C 310.579 49.333,310.500 49.414,310.500 49.513 C 310.500 49.612,310.230 50.254,309.901 50.939 C 309.571 51.624,309.282 52.275,309.258 52.384 C 309.094 53.154,308.744 54.167,308.642 54.167 C 308.575 54.167,308.519 54.298,308.517 54.458 C 308.511 55.010,308.320 56.047,308.175 56.319 C 308.094 56.468,307.981 57.039,307.922 57.587 C 307.758 59.129,307.692 59.273,307.028 59.550 C 306.245 59.877,305.779 60.051,305.639 60.069 C 305.578 60.077,305.472 60.140,305.403 60.208 C 305.334 60.277,305.142 60.333,304.976 60.333 C 304.610 60.333,302.439 61.199,302.361 61.376 C 302.330 61.445,302.244 61.465,302.170 61.419 C 302.095 61.373,301.821 61.447,301.559 61.583 C 301.297 61.720,300.952 61.832,300.792 61.832 C 300.631 61.833,300.500 61.901,300.500 61.984 C 300.500 62.067,300.364 62.100,300.197 62.056 C 300.030 62.013,299.796 62.095,299.676 62.238 C 299.557 62.382,299.342 62.500,299.200 62.500 C 298.844 62.500,297.773 62.883,297.648 63.055 C 297.592 63.132,297.517 63.183,297.481 63.167 C 297.346 63.109,296.408 63.386,296.208 63.543 C 296.094 63.634,296.000 63.652,296.000 63.583 C 296.000 63.515,295.906 63.533,295.792 63.623 C 295.677 63.714,295.133 63.924,294.583 64.092 C 294.033 64.259,293.537 64.463,293.481 64.545 C 293.425 64.628,293.330 64.684,293.270 64.670 C 293.091 64.629,291.277 65.184,290.917 65.391 C 290.733 65.496,290.508 65.589,290.417 65.599 C 290.325 65.608,290.137 65.658,290.000 65.710 C 289.862 65.762,289.225 65.980,288.583 66.194 C 287.942 66.408,287.371 66.646,287.315 66.723 C 287.259 66.799,287.164 66.850,287.104 66.835 C 286.892 66.783,285.972 67.034,285.530 67.265 C 285.285 67.393,284.957 67.498,284.802 67.499 C 284.646 67.500,284.473 67.575,284.417 67.667 C 284.360 67.758,284.149 67.834,283.948 67.834 C 283.748 67.835,283.374 67.945,283.118 68.078 C 282.862 68.212,282.394 68.369,282.078 68.429 C 281.740 68.492,281.547 68.608,281.611 68.711 C 281.670 68.806,281.650 68.843,281.566 68.791 C 281.454 68.722,279.362 69.323,279.042 69.517 C 279.019 69.530,278.944 69.558,278.875 69.577 C 278.806 69.596,278.637 69.659,278.500 69.716 C 278.085 69.888,275.106 70.853,274.775 70.923 C 274.605 70.958,274.380 71.057,274.275 71.142 C 274.169 71.226,273.765 71.348,273.375 71.412 C 272.985 71.477,272.667 71.610,272.667 71.709 C 272.667 71.808,272.620 71.842,272.562 71.784 C 272.505 71.727,272.205 71.786,271.895 71.915 C 271.586 72.044,271.333 72.114,271.333 72.071 C 271.333 72.027,271.109 72.107,270.835 72.249 C 270.561 72.391,270.280 72.514,270.210 72.523 C 270.140 72.532,269.910 72.606,269.697 72.687 C 269.485 72.767,269.185 72.834,269.031 72.834 C 268.876 72.835,268.556 72.937,268.318 73.061 C 268.080 73.185,267.615 73.337,267.283 73.399 C 266.952 73.462,266.471 73.622,266.215 73.755 C 265.959 73.889,265.590 73.998,265.395 73.999 C 265.200 74.000,264.951 74.108,264.842 74.240 C 264.732 74.372,264.534 74.439,264.402 74.388 C 264.270 74.337,264.051 74.389,263.915 74.502 C 263.778 74.615,263.667 74.646,263.667 74.570 C 263.667 74.495,263.577 74.523,263.467 74.633 C 263.357 74.743,263.113 74.834,262.925 74.834 C 262.737 74.835,262.391 74.936,262.156 75.059 C 261.661 75.317,260.815 75.570,260.607 75.521 C 260.529 75.503,260.379 75.557,260.274 75.642 C 260.169 75.726,259.821 75.850,259.500 75.917 C 259.179 75.984,258.839 76.100,258.745 76.176 C 258.650 76.252,258.388 76.349,258.161 76.391 C 257.935 76.434,257.525 76.558,257.250 76.666 C 256.975 76.774,256.531 76.892,256.263 76.927 C 255.994 76.963,255.698 77.068,255.604 77.162 C 255.510 77.256,255.303 77.333,255.144 77.333 C 254.985 77.333,254.644 77.420,254.386 77.526 C 254.128 77.631,253.842 77.739,253.750 77.765 C 253.658 77.790,253.340 77.886,253.042 77.977 C 252.744 78.069,252.500 78.102,252.500 78.051 C 252.500 78.001,252.403 78.040,252.285 78.138 C 252.167 78.236,251.821 78.360,251.518 78.414 C 251.214 78.467,250.665 78.664,250.299 78.851 C 249.932 79.038,249.682 79.109,249.744 79.009 C 249.808 78.907,249.616 78.934,249.303 79.073 C 248.870 79.265,245.951 80.143,244.333 80.568 C 244.196 80.604,243.596 80.799,243.000 81.002 C 242.404 81.205,241.692 81.407,241.417 81.451 C 241.142 81.495,240.839 81.595,240.743 81.674 C 240.648 81.752,240.310 81.862,239.993 81.917 C 239.676 81.972,239.079 82.132,238.667 82.272 C 238.254 82.411,237.785 82.536,237.625 82.548 C 237.465 82.561,237.333 82.614,237.333 82.667 C 237.333 82.719,237.190 82.773,237.014 82.786 C 236.838 82.800,235.919 83.050,234.972 83.343 C 234.025 83.635,233.025 83.910,232.750 83.953 C 232.475 83.996,232.173 84.095,232.078 84.172 C 231.984 84.250,231.721 84.352,231.495 84.399 C 231.269 84.446,230.865 84.529,230.599 84.584 C 230.333 84.638,229.995 84.745,229.849 84.822 C 229.703 84.899,229.265 85.014,228.875 85.079 C 228.485 85.143,228.167 85.249,228.167 85.314 C 228.167 85.379,227.892 85.450,227.556 85.473 C 227.220 85.496,226.864 85.567,226.764 85.631 C 226.550 85.769,225.354 86.126,224.417 86.331 C 224.050 86.411,223.225 86.639,222.583 86.838 C 221.942 87.036,221.154 87.260,220.833 87.335 C 220.512 87.410,220.100 87.513,219.917 87.564 C 219.733 87.615,219.311 87.724,218.978 87.807 C 218.645 87.889,218.289 88.008,218.187 88.071 C 217.954 88.215,217.450 88.331,216.542 88.450 C 216.152 88.501,215.833 88.599,215.833 88.667 C 215.833 88.735,215.552 88.838,215.208 88.895 C 213.847 89.121,213.581 89.192,213.527 89.344 C 213.497 89.431,213.409 89.464,213.333 89.417 C 213.257 89.369,212.982 89.412,212.722 89.511 C 212.463 89.610,211.912 89.762,211.500 89.848 C 210.120 90.137,209.950 90.182,209.663 90.335 C 209.506 90.419,209.340 90.451,209.295 90.406 C 209.250 90.361,208.996 90.411,208.731 90.516 C 208.467 90.622,207.838 90.805,207.333 90.922 C 206.829 91.040,206.004 91.256,205.500 91.402 C 204.996 91.549,204.182 91.741,203.691 91.829 C 203.200 91.916,202.712 92.056,202.608 92.139 C 202.503 92.221,202.006 92.341,201.504 92.405 C 201.002 92.469,200.515 92.585,200.421 92.663 C 200.327 92.741,199.912 92.857,199.500 92.920 C 198.416 93.086,198.433 93.083,198.240 93.203 C 198.143 93.264,197.675 93.365,197.199 93.428 C 196.723 93.491,196.333 93.592,196.333 93.653 C 196.333 93.713,196.098 93.780,195.810 93.802 C 195.522 93.824,194.978 93.920,194.602 94.014 C 194.225 94.109,193.409 94.291,192.788 94.419 C 192.167 94.547,191.596 94.691,191.517 94.739 C 191.439 94.788,190.978 94.868,190.492 94.918 C 190.006 94.967,189.527 95.071,189.429 95.148 C 189.331 95.225,189.137 95.291,189.000 95.295 C 188.441 95.310,186.619 95.600,185.583 95.838 C 185.217 95.923,184.673 95.994,184.375 95.996 C 184.077 95.998,183.833 96.062,183.833 96.138 C 183.833 96.214,183.406 96.294,182.885 96.315 C 182.363 96.336,181.861 96.400,181.768 96.457 C 181.676 96.514,181.446 96.570,181.258 96.581 C 181.070 96.593,180.392 96.697,179.750 96.812 C 177.587 97.202,176.921 97.312,175.667 97.484 C 174.979 97.578,174.267 97.686,174.083 97.722 C 173.900 97.759,173.300 97.846,172.750 97.915 C 172.200 97.985,171.600 98.075,171.417 98.114 C 170.639 98.283,168.876 98.531,168.375 98.542 C 168.077 98.548,167.833 98.600,167.833 98.658 C 167.833 98.715,167.702 98.765,167.542 98.769 C 166.944 98.784,165.223 98.990,164.417 99.142 C 163.958 99.229,163.021 99.350,162.333 99.411 C 161.646 99.473,160.858 99.590,160.583 99.671 C 159.978 99.851,158.508 100.022,157.542 100.026 C 157.152 100.027,156.833 100.081,156.833 100.146 C 156.833 100.212,156.552 100.281,156.208 100.300 C 155.865 100.320,155.208 100.381,154.750 100.437 C 154.292 100.492,153.692 100.564,153.417 100.595 C 152.905 100.653,150.842 100.908,149.500 101.079 C 147.216 101.370,145.695 101.528,145.262 101.519 C 144.993 101.513,144.693 101.572,144.595 101.650 C 144.497 101.728,143.518 101.845,142.421 101.910 C 141.323 101.975,140.293 102.099,140.133 102.185 C 139.972 102.271,138.958 102.386,137.879 102.441 C 136.800 102.497,135.879 102.589,135.833 102.646 C 135.787 102.703,135.563 102.761,135.333 102.775 C 134.802 102.806,132.454 102.997,131.583 103.079 C 131.217 103.114,130.467 103.186,129.917 103.239 C 129.367 103.292,128.467 103.379,127.917 103.433 C 127.367 103.486,126.579 103.549,126.167 103.572 C 125.754 103.596,125.079 103.662,124.667 103.719 C 123.764 103.844,121.731 104.028,120.583 104.089 C 120.125 104.114,119.337 104.179,118.833 104.235 C 117.376 104.396,115.818 104.539,114.917 104.594 C 114.458 104.622,113.671 104.682,113.167 104.728 C 111.661 104.863,107.942 105.074,107.583 105.044 C 107.400 105.028,106.875 105.083,106.417 105.167 C 105.958 105.250,104.683 105.358,103.583 105.408 C 101.237 105.514,99.695 105.605,98.083 105.733 C 97.025 105.816,93.112 105.999,90.583 106.083 C 89.494 106.120,86.037 106.293,83.917 106.417 C 83.183 106.460,81.271 106.534,79.667 106.581 C 78.063 106.628,76.000 106.706,75.083 106.754 C 72.967 106.864,66.545 106.986,57.500 107.087 C 53.604 107.130,50.042 107.209,49.583 107.262 C 49.125 107.314,48.563 107.344,48.333 107.327 C 47.803 107.288,47.869 107.287,44.958 107.346 L 42.500 107.396 42.488 107.823 C 42.410 110.646,42.523 116.675,42.739 121.333 C 42.776 122.112,42.827 124.645,42.853 126.961 C 42.879 129.277,42.944 131.243,42.998 131.331 C 43.053 131.419,44.134 131.494,45.423 131.498 C 47.778 131.506,57.583 131.383,57.583 131.346 C 57.583 131.334,59.571 131.289,62.000 131.246 C 71.845 131.068,79.883 130.836,85.167 130.575 C 86.221 130.523,87.833 130.455,88.750 130.423 C 89.667 130.391,91.129 130.324,92.000 130.272 C 92.871 130.221,94.558 130.131,95.750 130.072 C 96.942 130.013,98.179 129.946,98.500 129.922 C 99.880 129.821,102.584 129.668,104.749 129.570 C 106.032 129.513,107.196 129.443,107.337 129.416 C 107.477 129.389,108.302 129.321,109.171 129.265 C 110.751 129.162,113.050 128.986,113.833 128.908 C 114.063 128.885,114.888 128.819,115.667 128.761 C 116.446 128.704,117.533 128.623,118.083 128.582 C 119.879 128.449,121.404 128.322,122.083 128.250 C 122.450 128.211,123.181 128.167,123.708 128.151 C 124.235 128.136,124.667 128.073,124.667 128.012 C 124.667 127.951,125.060 127.922,125.542 127.946 C 126.023 127.971,126.604 127.923,126.833 127.839 C 127.063 127.756,127.962 127.638,128.833 127.578 C 129.704 127.517,130.642 127.448,130.917 127.423 C 131.192 127.398,132.504 127.288,133.833 127.179 C 135.162 127.069,136.475 126.947,136.750 126.907 C 138.301 126.683,140.757 126.442,141.331 126.458 C 141.559 126.464,141.859 126.410,141.998 126.337 C 142.136 126.265,143.037 126.155,144.000 126.093 C 144.962 126.031,146.012 125.914,146.333 125.832 C 146.654 125.749,147.742 125.632,148.750 125.571 C 149.758 125.510,150.658 125.404,150.750 125.335 C 150.928 125.201,153.388 124.946,154.292 124.968 C 154.590 124.975,154.833 124.921,154.833 124.847 C 154.833 124.774,155.490 124.665,156.292 124.605 C 157.927 124.484,158.200 124.453,160.083 124.187 C 160.817 124.083,161.754 123.956,162.167 123.906 C 162.579 123.855,163.329 123.746,163.833 123.663 C 164.337 123.580,165.087 123.469,165.500 123.416 C 166.567 123.281,169.887 122.834,171.167 122.654 C 171.762 122.570,172.512 122.466,172.833 122.422 C 173.154 122.378,173.567 122.311,173.750 122.274 C 174.856 122.048,175.630 121.946,175.956 121.982 C 176.160 122.005,176.423 121.964,176.539 121.891 C 176.779 121.741,176.719 121.753,178.167 121.585 C 179.413 121.441,179.882 121.375,180.000 121.327 C 180.046 121.309,180.135 121.301,180.197 121.310 C 180.260 121.319,180.748 121.243,181.281 121.141 C 181.814 121.039,182.362 120.959,182.500 120.963 C 182.637 120.967,182.975 120.902,183.250 120.819 C 183.525 120.737,184.088 120.635,184.500 120.593 C 184.912 120.551,185.438 120.482,185.667 120.439 C 185.896 120.396,186.721 120.271,187.500 120.161 C 188.279 120.051,189.067 119.900,189.250 119.825 C 189.433 119.751,189.958 119.633,190.417 119.563 C 190.875 119.494,191.362 119.418,191.500 119.394 C 191.637 119.371,192.200 119.279,192.750 119.191 C 193.300 119.103,193.961 118.949,194.219 118.849 C 194.477 118.749,194.942 118.667,195.251 118.667 C 195.560 118.667,195.861 118.590,195.918 118.497 C 195.976 118.404,196.087 118.367,196.164 118.415 C 196.242 118.463,196.487 118.433,196.708 118.349 C 196.930 118.265,197.367 118.153,197.681 118.101 C 198.463 117.970,198.976 117.863,199.305 117.761 C 199.458 117.713,199.883 117.628,200.250 117.571 C 200.617 117.513,201.035 117.404,201.179 117.326 C 201.323 117.249,201.751 117.149,202.129 117.103 C 202.507 117.058,202.954 116.947,203.123 116.857 C 203.291 116.767,203.688 116.657,204.006 116.612 C 204.323 116.567,204.583 116.517,204.583 116.501 C 204.583 116.485,204.733 116.445,204.917 116.411 C 206.186 116.178,207.108 115.951,207.250 115.837 C 207.342 115.764,207.829 115.650,208.333 115.583 C 208.838 115.517,209.325 115.402,209.417 115.329 C 209.508 115.255,209.921 115.146,210.333 115.087 C 210.746 115.027,211.421 114.865,211.833 114.726 C 212.246 114.588,212.733 114.456,212.917 114.433 C 213.100 114.410,213.362 114.348,213.500 114.296 C 214.108 114.066,215.643 113.664,216.292 113.565 C 216.681 113.506,217.000 113.408,217.000 113.348 C 217.000 113.288,217.169 113.225,217.375 113.206 C 217.581 113.188,218.162 113.056,218.667 112.913 C 219.171 112.769,219.733 112.623,219.917 112.588 C 220.100 112.553,220.850 112.363,221.583 112.166 C 222.317 111.969,223.104 111.769,223.333 111.723 C 223.563 111.677,223.862 111.596,224.000 111.543 C 224.137 111.490,224.314 111.462,224.393 111.479 C 224.471 111.497,224.625 111.437,224.734 111.346 C 224.844 111.256,225.267 111.130,225.675 111.067 C 226.083 111.005,226.604 110.860,226.833 110.746 C 227.063 110.632,227.573 110.494,227.969 110.439 C 228.364 110.385,228.776 110.285,228.885 110.216 C 228.994 110.148,229.158 110.079,229.250 110.062 C 229.342 110.045,229.604 109.988,229.833 109.934 C 230.063 109.881,230.475 109.788,230.750 109.729 C 231.025 109.670,231.325 109.564,231.417 109.493 C 231.508 109.421,231.883 109.314,232.250 109.254 C 232.617 109.194,233.217 109.041,233.583 108.912 C 233.950 108.784,234.550 108.605,234.917 108.513 C 235.283 108.422,235.996 108.227,236.500 108.081 C 237.004 107.934,237.529 107.789,237.667 107.758 C 237.804 107.727,238.299 107.576,238.767 107.423 C 239.235 107.270,239.722 107.125,239.850 107.100 C 240.294 107.016,241.588 106.655,242.750 106.290 C 243.392 106.089,243.981 105.944,244.059 105.968 C 244.138 105.992,244.288 105.944,244.393 105.862 C 244.578 105.717,245.149 105.549,245.995 105.391 C 246.221 105.348,246.484 105.250,246.578 105.172 C 246.673 105.095,246.975 104.995,247.250 104.951 C 247.525 104.907,248.204 104.716,248.759 104.528 C 249.314 104.339,249.952 104.148,250.176 104.102 C 250.400 104.057,250.968 103.869,251.439 103.684 C 251.909 103.500,252.339 103.394,252.393 103.449 C 252.447 103.503,252.606 103.453,252.746 103.337 C 252.886 103.221,253.000 103.175,253.000 103.235 C 253.000 103.296,253.169 103.251,253.375 103.137 C 253.581 103.023,253.803 102.944,253.868 102.962 C 253.934 102.981,254.627 102.778,255.410 102.512 C 256.193 102.245,256.833 102.060,256.833 102.099 C 256.833 102.139,257.077 102.069,257.375 101.945 C 257.673 101.821,258.198 101.666,258.542 101.602 C 258.885 101.538,259.167 101.413,259.167 101.326 C 259.167 101.238,259.223 101.182,259.292 101.200 C 259.510 101.259,260.731 100.977,261.080 100.787 C 261.265 100.686,261.529 100.593,261.667 100.580 C 261.920 100.557,262.974 100.231,263.583 99.987 C 263.900 99.861,264.606 99.633,264.875 99.571 C 264.944 99.555,265.019 99.527,265.042 99.508 C 265.065 99.490,265.196 99.445,265.333 99.408 C 266.676 99.050,267.471 98.812,267.750 98.684 C 268.277 98.441,268.711 98.307,269.250 98.221 C 269.525 98.177,269.955 98.040,270.207 97.917 C 270.458 97.794,270.908 97.642,271.207 97.578 C 271.505 97.514,271.825 97.402,271.917 97.328 C 272.008 97.255,272.121 97.200,272.167 97.205 C 272.212 97.211,272.400 97.174,272.583 97.124 C 274.194 96.683,274.500 96.577,274.500 96.464 C 274.500 96.392,274.556 96.346,274.625 96.361 C 274.732 96.384,275.344 96.256,275.917 96.091 C 276.008 96.064,276.158 96.027,276.250 96.007 C 276.342 95.988,276.510 95.894,276.625 95.799 C 276.740 95.704,276.833 95.666,276.833 95.715 C 276.833 95.764,277.227 95.657,277.708 95.476 C 278.190 95.295,278.716 95.118,278.878 95.083 C 279.176 95.017,281.538 94.234,282.000 94.048 C 282.137 93.993,282.345 93.963,282.461 93.982 C 282.577 94.000,282.652 93.919,282.628 93.800 C 282.603 93.680,282.705 93.603,282.855 93.628 C 283.079 93.664,286.118 92.752,287.000 92.383 C 287.137 92.326,287.300 92.272,287.361 92.264 C 287.422 92.256,287.528 92.194,287.597 92.125 C 287.666 92.056,287.861 92.000,288.030 92.000 C 288.199 92.000,288.468 91.930,288.627 91.845 C 288.933 91.683,289.320 91.530,290.000 91.305 C 290.137 91.260,290.737 91.053,291.333 90.846 C 291.929 90.639,292.754 90.368,293.167 90.244 C 294.611 89.808,295.588 89.476,296.083 89.252 C 296.358 89.127,296.883 88.935,297.250 88.824 C 297.617 88.714,297.992 88.564,298.083 88.492 C 298.175 88.421,298.287 88.360,298.333 88.358 C 298.379 88.356,298.529 88.319,298.667 88.276 C 298.804 88.232,299.067 88.157,299.250 88.108 C 299.433 88.059,300.333 87.746,301.250 87.411 C 302.167 87.077,303.179 86.727,303.500 86.634 C 303.821 86.541,304.158 86.408,304.250 86.338 C 304.342 86.268,304.942 86.041,305.583 85.833 C 306.225 85.626,306.825 85.397,306.917 85.326 C 307.008 85.255,307.365 85.144,307.708 85.080 C 308.052 85.015,308.333 84.892,308.333 84.805 C 308.333 84.718,308.403 84.690,308.488 84.743 C 308.574 84.796,308.691 84.763,308.748 84.669 C 308.806 84.576,308.985 84.500,309.147 84.500 C 309.308 84.500,309.735 84.357,310.094 84.182 C 310.454 84.007,310.805 83.899,310.874 83.942 C 310.943 83.985,311.000 83.947,311.000 83.858 C 311.000 83.769,311.319 83.643,311.708 83.579 C 312.098 83.515,312.499 83.396,312.599 83.316 C 312.699 83.236,313.254 83.018,313.833 82.833 C 314.412 82.648,314.976 82.422,315.087 82.331 C 315.231 82.211,315.621 82.499,316.477 83.356 C 317.131 84.012,317.667 84.499,317.667 84.439 C 317.667 84.379,317.910 84.566,318.208 84.853 C 318.506 85.141,319.050 85.573,319.417 85.813 C 319.783 86.053,320.267 86.416,320.492 86.619 C 320.717 86.822,321.111 87.035,321.368 87.091 C 321.626 87.148,321.794 87.263,321.742 87.347 C 321.690 87.431,321.708 87.506,321.782 87.513 C 322.212 87.553,322.562 87.662,322.650 87.781 C 322.782 87.960,323.963 88.558,324.031 88.479 C 324.060 88.446,324.308 88.575,324.583 88.768 C 325.057 89.099,325.936 89.420,326.208 89.361 C 326.277 89.346,326.333 89.416,326.333 89.518 C 326.333 89.619,326.443 89.660,326.578 89.608 C 326.713 89.557,326.864 89.581,326.914 89.663 C 327.002 89.805,328.286 90.223,329.167 90.397 C 329.396 90.442,329.996 90.587,330.500 90.719 C 331.937 91.094,338.869 91.263,340.847 90.971 C 342.348 90.749,343.667 90.431,343.667 90.290 C 343.667 90.211,343.731 90.187,343.809 90.235 C 343.960 90.328,344.362 90.212,346.333 89.508 C 346.654 89.393,347.085 89.261,347.292 89.214 C 347.498 89.166,347.667 89.049,347.667 88.953 C 347.667 88.857,347.709 88.820,347.760 88.871 C 347.876 88.987,350.094 87.919,350.246 87.674 C 350.307 87.575,350.420 87.534,350.498 87.582 C 350.576 87.630,350.740 87.574,350.862 87.458 C 350.984 87.341,351.294 87.153,351.551 87.039 C 351.834 86.914,351.972 86.756,351.900 86.640 C 351.834 86.533,351.855 86.493,351.946 86.550 C 352.222 86.720,355.366 84.402,355.907 83.631 C 356.050 83.426,356.167 83.320,356.167 83.394 C 356.167 83.541,357.317 82.353,358.339 81.149 C 358.698 80.726,358.943 80.332,358.885 80.274 C 358.826 80.215,358.872 80.167,358.987 80.167 C 359.204 80.167,359.818 79.520,359.828 79.281 C 359.831 79.206,360.021 78.899,360.250 78.598 C 360.479 78.298,360.667 77.977,360.667 77.885 C 360.667 77.793,360.814 77.585,360.993 77.423 C 361.173 77.260,361.310 77.080,361.298 77.022 C 361.253 76.814,361.724 76.000,361.888 76.000 C 361.980 76.000,362.009 75.954,361.952 75.897 C 361.896 75.840,361.959 75.684,362.093 75.550 C 362.227 75.416,362.299 75.246,362.253 75.172 C 362.208 75.098,362.282 74.945,362.419 74.832 C 362.555 74.719,362.667 74.520,362.667 74.390 C 362.667 74.261,362.773 73.989,362.903 73.786 C 363.034 73.583,363.165 73.267,363.195 73.083 C 363.225 72.900,363.294 72.712,363.348 72.667 C 363.530 72.513,363.995 70.960,363.904 70.813 C 363.854 70.732,363.898 70.667,364.000 70.667 C 364.102 70.667,364.143 70.597,364.090 70.512 C 364.038 70.426,364.066 70.312,364.153 70.258 C 364.241 70.204,364.312 70.030,364.312 69.872 C 364.311 69.484,364.422 68.830,364.564 68.388 C 365.231 66.315,365.337 59.882,364.748 57.250 C 364.604 56.608,364.458 55.933,364.424 55.750 C 364.390 55.567,364.286 55.173,364.193 54.875 C 364.099 54.577,364.053 54.333,364.089 54.333 C 364.125 54.333,364.010 53.996,363.833 53.583 C 363.657 53.171,363.556 52.833,363.610 52.833 C 363.663 52.833,363.633 52.740,363.542 52.625 C 363.451 52.510,363.282 52.124,363.167 51.766 C 362.953 51.104,361.528 48.152,361.348 48.000 C 361.294 47.954,361.107 47.635,360.932 47.292 C 360.757 46.948,360.547 46.667,360.464 46.667 C 360.381 46.667,360.356 46.598,360.408 46.514 C 360.460 46.430,360.445 46.337,360.376 46.306 C 360.233 46.243,359.167 44.894,359.167 44.777 C 359.167 44.533,355.105 40.335,354.867 40.332 C 354.803 40.331,354.347 39.953,353.854 39.492 C 353.362 39.030,352.917 38.694,352.866 38.745 C 352.815 38.796,352.580 38.660,352.345 38.443 C 352.109 38.225,351.579 37.870,351.167 37.654 C 350.754 37.438,350.304 37.171,350.167 37.062 C 350.029 36.953,349.767 36.838,349.583 36.807 C 349.400 36.776,349.212 36.704,349.167 36.647 C 349.036 36.487,347.241 35.667,347.020 35.667 C 346.911 35.667,346.643 35.550,346.425 35.407 C 346.207 35.264,345.853 35.128,345.639 35.104 C 345.425 35.080,345.100 34.982,344.917 34.886 C 344.733 34.790,344.490 34.745,344.375 34.786 C 344.260 34.827,344.167 34.796,344.167 34.716 C 344.167 34.636,343.944 34.554,343.672 34.533 C 343.399 34.512,342.983 34.422,342.746 34.332 C 341.278 33.774,335.678 33.501,332.750 33.846 M332.167 124.937 C 331.342 125.032,330.121 125.356,329.877 125.545 C 329.764 125.632,329.561 125.662,329.428 125.611 C 329.294 125.559,328.583 125.728,327.847 125.985 C 327.111 126.243,326.470 126.414,326.421 126.366 C 326.373 126.317,326.333 126.378,326.333 126.500 C 326.333 126.622,326.288 126.677,326.232 126.621 C 326.085 126.474,322.667 127.980,322.667 128.193 C 322.667 128.256,322.441 128.356,322.165 128.417 C 321.889 128.478,321.703 128.590,321.750 128.667 C 321.797 128.743,321.606 128.857,321.324 128.919 C 321.042 128.981,320.770 129.137,320.721 129.266 C 320.671 129.395,320.527 129.500,320.399 129.500 C 320.271 129.500,320.167 129.558,320.167 129.629 C 320.167 129.700,319.923 129.889,319.625 130.050 C 319.327 130.211,318.765 130.646,318.375 131.017 C 317.985 131.388,317.667 131.636,317.667 131.569 C 317.667 131.501,317.292 131.831,316.833 132.301 C 316.375 132.772,316.000 133.116,316.000 133.066 C 316.000 133.015,315.795 133.224,315.543 133.529 C 315.292 133.834,314.955 134.181,314.793 134.301 C 314.632 134.421,314.500 134.609,314.500 134.720 C 314.500 134.830,314.275 135.106,314.000 135.333 C 313.725 135.560,313.500 135.843,313.500 135.962 C 313.500 136.080,313.388 136.220,313.251 136.273 C 313.114 136.325,313.043 136.435,313.094 136.517 C 313.145 136.600,313.107 136.667,313.010 136.667 C 312.913 136.667,312.833 136.784,312.833 136.927 C 312.833 137.069,312.772 137.149,312.698 137.102 C 312.623 137.056,312.342 137.427,312.073 137.925 C 311.803 138.424,311.523 138.832,311.448 138.833 C 311.374 138.833,311.355 138.900,311.405 138.981 C 311.455 139.062,311.392 139.215,311.265 139.321 C 311.137 139.427,310.986 139.698,310.930 139.924 C 310.873 140.149,310.753 140.333,310.663 140.333 C 310.574 140.333,310.498 140.465,310.495 140.625 C 310.492 140.785,310.390 141.048,310.268 141.208 C 310.057 141.486,303.477 141.500,176.190 141.500 L 42.333 141.500 42.333 153.583 L 42.333 165.667 176.222 165.667 L 310.110 165.667 310.347 166.125 C 310.476 166.377,310.625 166.621,310.676 166.667 C 310.727 166.712,310.868 166.994,310.988 167.292 C 311.109 167.590,311.273 167.833,311.354 167.833 C 311.434 167.833,311.500 167.974,311.500 168.146 C 311.500 168.318,311.612 168.553,311.750 168.667 C 311.887 168.781,312.000 168.943,312.000 169.028 C 312.000 169.112,312.188 169.383,312.417 169.631 C 312.646 169.878,312.833 170.161,312.833 170.260 C 312.833 170.360,313.196 170.829,313.639 171.304 C 314.082 171.778,314.417 172.194,314.383 172.228 C 314.113 172.498,320.640 178.167,321.220 178.167 C 321.295 178.167,321.470 178.279,321.607 178.417 C 321.745 178.554,321.997 178.667,322.169 178.667 C 322.340 178.667,322.526 178.740,322.581 178.830 C 322.714 179.045,325.751 180.500,326.068 180.500 C 326.203 180.500,326.361 180.577,326.419 180.671 C 326.478 180.765,326.613 180.826,326.721 180.807 C 326.829 180.788,327.217 180.903,327.583 181.064 C 328.236 181.349,329.667 181.688,329.667 181.558 C 329.667 181.521,329.873 181.598,330.125 181.728 C 331.125 182.245,337.022 182.488,340.000 182.136 C 340.688 182.054,341.413 181.989,341.612 181.991 C 341.811 181.993,342.252 181.878,342.593 181.735 C 342.934 181.593,343.427 181.470,343.690 181.463 C 343.952 181.455,344.167 181.382,344.167 181.301 C 344.167 181.219,344.260 181.168,344.375 181.189 C 344.653 181.237,346.033 180.842,346.275 180.644 C 346.380 180.558,346.632 180.455,346.835 180.416 C 347.037 180.377,347.551 180.175,347.977 179.967 C 348.402 179.759,348.809 179.588,348.881 179.586 C 348.953 179.585,349.083 179.471,349.170 179.333 C 349.257 179.196,349.329 179.149,349.331 179.229 C 349.332 179.309,349.434 179.291,349.557 179.189 C 349.680 179.086,349.830 179.052,349.890 179.113 C 349.951 179.173,350.000 179.148,350.000 179.057 C 350.000 178.967,350.375 178.723,350.833 178.516 C 351.292 178.309,351.667 178.066,351.667 177.977 C 351.667 177.887,351.733 177.854,351.813 177.904 C 351.894 177.954,352.156 177.798,352.397 177.558 C 352.637 177.318,352.836 177.188,352.838 177.269 C 352.841 177.350,352.920 177.285,353.013 177.125 C 353.107 176.965,353.278 176.833,353.395 176.833 C 353.511 176.833,353.765 176.665,353.958 176.458 C 354.400 175.988,354.800 175.658,354.917 175.667 C 355.098 175.680,358.020 172.739,358.461 172.098 C 358.712 171.734,359.123 171.209,359.375 170.931 C 359.627 170.653,359.833 170.357,359.833 170.274 C 359.833 170.191,359.989 169.987,360.180 169.822 C 360.370 169.657,360.544 169.398,360.567 169.247 C 360.589 169.097,360.677 168.923,360.762 168.862 C 361.109 168.611,363.147 164.561,363.272 163.873 C 363.317 163.626,363.443 163.367,363.552 163.298 C 363.661 163.228,363.696 163.171,363.631 163.169 C 363.565 163.168,363.654 162.836,363.827 162.432 C 364.000 162.028,364.105 161.661,364.061 161.617 C 364.017 161.572,364.090 161.274,364.224 160.953 C 364.358 160.632,364.512 160.043,364.566 159.643 C 364.621 159.244,364.747 158.654,364.846 158.333 C 364.945 158.012,365.051 156.250,365.082 154.417 C 365.142 150.746,365.011 149.156,364.475 147.083 C 364.380 146.717,364.264 146.173,364.216 145.875 C 364.169 145.577,364.066 145.333,363.987 145.333 C 363.908 145.333,363.892 145.209,363.950 145.056 C 364.027 144.855,363.996 144.816,363.836 144.915 C 363.693 145.003,363.655 144.987,363.728 144.869 C 363.858 144.659,363.482 143.333,363.293 143.333 C 363.223 143.333,363.167 143.176,363.167 142.984 C 363.167 142.792,363.060 142.436,362.929 142.192 C 362.798 141.949,362.592 141.506,362.471 141.208 C 362.351 140.910,362.191 140.667,362.116 140.667 C 362.041 140.667,362.027 140.592,362.083 140.500 C 362.140 140.408,362.108 140.333,362.013 140.333 C 361.918 140.333,361.793 140.149,361.737 139.924 C 361.680 139.698,361.530 139.427,361.402 139.321 C 361.275 139.215,361.204 139.074,361.246 139.006 C 361.288 138.939,361.171 138.722,360.988 138.525 C 360.804 138.328,360.697 138.167,360.750 138.167 C 360.803 138.167,360.767 138.073,360.671 137.958 C 360.574 137.844,360.218 137.319,359.879 136.792 C 359.540 136.265,359.166 135.833,359.048 135.833 C 358.930 135.833,358.833 135.740,358.832 135.625 C 358.831 135.259,356.859 133.116,355.232 131.713 C 353.655 130.352,353.415 130.167,353.222 130.167 C 353.115 130.167,353.003 130.110,352.972 130.042 C 352.885 129.846,351.708 129.000,351.523 129.000 C 351.432 129.000,351.238 128.881,351.092 128.735 C 350.946 128.589,350.710 128.452,350.567 128.431 C 350.424 128.410,350.248 128.298,350.176 128.182 C 350.105 128.066,350.017 127.989,349.981 128.010 C 349.946 128.032,349.598 127.887,349.208 127.688 C 348.819 127.489,348.500 127.377,348.500 127.439 C 348.500 127.501,348.350 127.416,348.167 127.250 C 347.983 127.084,347.832 127.016,347.831 127.099 C 347.829 127.182,347.773 127.175,347.706 127.083 C 347.579 126.911,346.669 126.533,346.083 126.410 C 345.900 126.372,345.600 126.270,345.417 126.184 C 344.786 125.888,343.961 125.671,343.814 125.762 C 343.733 125.812,343.667 125.787,343.667 125.707 C 343.667 125.584,342.902 125.388,341.083 125.043 C 340.594 124.950,332.851 124.859,332.167 124.937 M44.875 175.624 C 43.844 175.654,42.995 175.731,42.990 175.797 C 42.984 175.863,42.950 177.004,42.913 178.333 C 42.721 185.198,42.645 187.927,42.544 191.500 C 42.349 198.377,42.392 199.812,42.792 199.815 C 42.952 199.817,44.921 199.858,47.167 199.907 C 49.413 199.955,54.325 200.034,58.083 200.082 C 61.842 200.130,66.229 200.208,67.833 200.256 C 69.438 200.304,72.100 200.373,73.750 200.409 C 78.053 200.503,82.436 200.661,83.500 200.759 C 84.403 200.842,85.227 200.880,90.333 201.074 C 91.754 201.128,93.517 201.215,94.250 201.268 C 96.237 201.411,97.187 201.465,99.667 201.578 C 100.904 201.635,102.217 201.715,102.583 201.757 C 102.950 201.799,104.000 201.878,104.917 201.934 C 105.833 201.989,106.921 202.059,107.333 202.089 C 107.746 202.120,108.667 202.161,109.380 202.179 C 110.093 202.198,110.713 202.273,110.758 202.346 C 110.803 202.419,111.457 202.467,112.212 202.454 C 112.966 202.440,113.661 202.477,113.756 202.536 C 113.851 202.595,114.695 202.662,115.631 202.685 C 116.567 202.708,117.333 202.777,117.333 202.839 C 117.333 202.901,117.765 202.951,118.292 202.949 C 118.819 202.948,119.662 202.994,120.167 203.051 C 121.192 203.168,122.867 203.334,124.000 203.430 C 124.412 203.466,125.162 203.531,125.667 203.575 C 126.171 203.619,127.071 203.696,127.667 203.747 C 129.165 203.875,130.329 203.982,132.083 204.154 C 132.908 204.235,133.633 204.270,133.694 204.233 C 133.755 204.195,133.830 204.232,133.861 204.315 C 133.892 204.398,134.779 204.515,135.833 204.575 C 136.887 204.636,137.975 204.719,138.250 204.760 C 139.472 204.942,139.813 204.984,140.833 205.079 C 141.429 205.134,142.292 205.246,142.750 205.327 C 143.208 205.408,143.696 205.471,143.833 205.467 C 144.090 205.460,144.658 205.523,147.250 205.848 C 148.075 205.952,149.087 206.063,149.500 206.096 C 149.912 206.129,150.704 206.233,151.259 206.327 C 151.814 206.421,152.714 206.539,153.259 206.588 C 153.804 206.637,154.678 206.759,155.201 206.860 C 155.725 206.960,156.306 207.003,156.493 206.954 C 156.680 206.905,156.867 206.920,156.909 206.987 C 156.950 207.054,157.414 207.126,157.941 207.148 C 158.467 207.169,158.976 207.238,159.074 207.302 C 159.171 207.365,159.438 207.423,159.667 207.431 C 159.896 207.440,160.421 207.494,160.833 207.553 C 161.246 207.612,161.958 207.703,162.417 207.756 C 163.237 207.850,164.116 207.977,164.646 208.079 C 165.900 208.320,167.527 208.503,167.665 208.418 C 167.757 208.361,167.833 208.374,167.833 208.448 C 167.834 208.523,168.115 208.603,168.458 208.628 C 169.484 208.701,169.746 208.744,169.833 208.857 C 169.879 208.915,170.546 209.011,171.316 209.070 C 172.085 209.129,172.785 209.220,172.872 209.274 C 172.959 209.328,173.342 209.392,173.723 209.416 C 174.105 209.441,174.792 209.550,175.250 209.659 C 175.708 209.768,176.421 209.885,176.833 209.920 C 177.246 209.954,177.996 210.059,178.500 210.152 C 179.988 210.427,181.547 210.689,182.083 210.752 C 182.358 210.785,182.583 210.826,182.583 210.844 C 182.583 210.862,182.733 210.896,182.917 210.920 C 183.100 210.944,183.550 211.003,183.917 211.051 C 184.283 211.099,184.771 211.182,185.000 211.234 C 185.608 211.374,186.326 211.505,187.083 211.615 C 187.450 211.668,187.881 211.779,188.042 211.862 C 188.229 211.958,188.333 211.949,188.333 211.838 C 188.333 211.726,188.438 211.718,188.625 211.814 C 188.951 211.982,190.343 212.317,191.131 212.416 C 191.414 212.452,191.955 212.565,192.333 212.667 C 192.712 212.769,193.222 212.883,193.469 212.921 C 193.715 212.959,194.254 213.077,194.667 213.183 C 195.079 213.288,195.529 213.393,195.667 213.414 C 195.804 213.436,196.029 213.493,196.167 213.541 C 196.304 213.589,197.017 213.760,197.750 213.920 C 198.483 214.081,199.421 214.308,199.833 214.425 C 200.483 214.610,201.662 214.849,201.913 214.847 C 201.958 214.847,202.315 214.960,202.706 215.099 C 203.097 215.238,203.867 215.453,204.417 215.577 C 204.967 215.701,205.867 215.928,206.417 216.083 C 206.967 216.237,207.642 216.398,207.917 216.439 C 208.192 216.481,208.610 216.590,208.846 216.683 C 209.634 216.990,211.288 217.385,212.707 217.606 C 213.050 217.659,213.294 217.763,213.249 217.836 C 213.203 217.909,213.560 218.022,214.042 218.086 C 214.523 218.151,215.012 218.281,215.129 218.376 C 215.246 218.470,215.389 218.500,215.447 218.442 C 215.505 218.384,215.635 218.400,215.735 218.479 C 215.835 218.557,216.250 218.672,216.658 218.735 C 217.066 218.797,217.479 218.906,217.575 218.976 C 217.731 219.090,218.622 219.335,219.833 219.596 C 220.063 219.646,220.325 219.703,220.417 219.723 C 220.508 219.743,220.658 219.805,220.750 219.860 C 220.979 219.999,222.365 220.238,222.642 220.187 C 222.766 220.163,222.817 220.224,222.757 220.322 C 222.693 220.425,222.784 220.500,222.970 220.500 C 223.147 220.500,223.572 220.617,223.914 220.760 C 224.256 220.903,224.574 220.982,224.620 220.936 C 224.666 220.890,225.091 220.997,225.565 221.174 C 226.038 221.351,226.761 221.565,227.171 221.649 C 227.581 221.734,228.442 221.961,229.083 222.155 C 229.725 222.350,230.438 222.546,230.667 222.591 C 230.896 222.636,231.233 222.742,231.417 222.826 C 231.802 223.003,233.372 223.444,234.039 223.563 C 234.289 223.607,234.575 223.694,234.674 223.755 C 234.773 223.816,235.093 223.903,235.385 223.949 C 235.678 223.995,236.053 224.106,236.219 224.195 C 236.512 224.352,236.795 224.430,237.667 224.597 C 237.896 224.640,238.196 224.723,238.333 224.780 C 238.646 224.910,239.009 225.011,239.336 225.061 C 239.475 225.082,239.663 225.145,239.753 225.200 C 239.945 225.319,242.938 226.219,247.167 227.431 C 247.671 227.576,248.196 227.740,248.333 227.796 C 248.471 227.852,248.658 227.904,248.750 227.912 C 248.842 227.919,249.010 227.984,249.125 228.056 C 249.240 228.128,249.408 228.140,249.500 228.083 C 249.592 228.027,249.667 228.064,249.667 228.167 C 249.667 228.269,249.742 228.307,249.833 228.250 C 249.925 228.193,250.000 228.239,250.000 228.351 C 250.000 228.464,250.044 228.511,250.098 228.457 C 250.153 228.403,250.483 228.460,250.833 228.583 C 251.183 228.707,251.514 228.764,251.568 228.710 C 251.622 228.655,251.667 228.692,251.667 228.791 C 251.667 228.890,251.985 229.024,252.375 229.088 C 252.765 229.153,253.297 229.315,253.557 229.449 C 253.818 229.582,254.068 229.654,254.113 229.610 C 254.158 229.565,254.694 229.718,255.306 229.951 C 255.917 230.184,256.567 230.391,256.750 230.411 C 256.933 230.432,257.373 230.572,257.726 230.723 C 258.080 230.874,258.431 230.960,258.506 230.913 C 258.582 230.866,258.691 230.904,258.748 230.997 C 258.806 231.090,259.036 231.167,259.260 231.167 C 259.484 231.167,259.667 231.248,259.667 231.347 C 259.667 231.447,259.760 231.494,259.875 231.452 C 259.990 231.411,260.327 231.476,260.625 231.596 C 260.923 231.717,261.168 231.764,261.169 231.700 C 261.171 231.636,261.228 231.672,261.297 231.781 C 261.366 231.889,261.609 232.005,261.836 232.038 C 262.064 232.071,262.414 232.189,262.614 232.299 C 262.814 232.410,263.166 232.500,263.396 232.500 C 263.626 232.500,263.855 232.567,263.906 232.650 C 263.957 232.732,264.393 232.892,264.874 233.005 C 265.356 233.118,265.825 233.256,265.917 233.311 C 266.008 233.366,266.121 233.419,266.167 233.429 C 266.212 233.438,266.400 233.503,266.583 233.572 C 267.834 234.049,268.140 234.138,268.227 234.051 C 268.281 233.997,268.436 234.045,268.572 234.157 C 268.708 234.270,268.909 234.306,269.018 234.239 C 269.145 234.161,269.174 234.186,269.099 234.308 C 269.024 234.430,269.109 234.500,269.332 234.500 C 269.525 234.500,269.902 234.613,270.170 234.752 C 270.438 234.890,270.715 234.994,270.787 234.982 C 270.858 234.970,270.954 234.975,271.000 234.993 C 271.046 235.010,271.265 235.058,271.487 235.099 C 271.709 235.140,271.984 235.251,272.097 235.345 C 272.211 235.440,272.515 235.555,272.772 235.602 C 273.029 235.648,273.317 235.747,273.411 235.820 C 273.506 235.894,273.696 235.961,273.833 235.968 C 274.129 235.984,275.859 236.581,276.609 236.925 C 276.897 237.058,277.279 237.167,277.456 237.167 C 277.633 237.167,277.834 237.223,277.903 237.292 C 277.972 237.360,278.078 237.423,278.139 237.430 C 278.476 237.471,279.274 237.731,279.425 237.849 C 279.521 237.924,279.914 238.036,280.297 238.097 C 280.680 238.158,280.958 238.266,280.915 238.336 C 280.872 238.406,281.117 238.515,281.460 238.579 C 281.803 238.642,282.308 238.796,282.583 238.921 C 282.858 239.046,283.233 239.171,283.417 239.199 C 283.600 239.227,283.787 239.289,283.833 239.338 C 283.922 239.431,286.134 240.164,286.520 240.228 C 286.646 240.249,286.919 240.359,287.125 240.472 C 287.331 240.586,287.500 240.637,287.500 240.585 C 287.500 240.534,287.669 240.601,287.875 240.734 C 288.081 240.867,288.531 241.027,288.875 241.090 C 289.219 241.152,289.500 241.278,289.500 241.370 C 289.500 241.461,289.610 241.493,289.745 241.442 C 289.879 241.390,290.028 241.410,290.075 241.486 C 290.121 241.562,290.405 241.681,290.705 241.752 C 291.005 241.822,291.287 241.894,291.333 241.912 C 291.379 241.930,291.642 242.039,291.917 242.154 C 292.192 242.269,292.529 242.390,292.667 242.422 C 293.021 242.506,295.458 243.398,296.234 243.728 C 296.592 243.880,296.922 243.967,296.968 243.921 C 297.014 243.875,297.286 243.983,297.573 244.160 C 297.859 244.337,298.465 244.565,298.918 244.667 C 299.371 244.768,299.782 244.918,299.832 244.998 C 299.882 245.079,300.109 245.172,300.336 245.206 C 300.564 245.240,301.125 245.437,301.583 245.645 C 302.042 245.852,302.642 246.064,302.917 246.115 C 303.192 246.166,303.572 246.304,303.763 246.422 C 303.953 246.540,304.507 246.755,304.993 246.899 C 305.479 247.043,305.993 247.256,306.137 247.372 C 306.350 247.545,306.373 247.543,306.261 247.358 C 306.162 247.193,306.232 247.202,306.521 247.391 C 306.739 247.534,306.972 247.656,307.040 247.663 C 307.445 247.705,307.616 247.910,307.640 248.383 C 307.664 248.874,307.786 249.618,308.346 252.708 C 308.458 253.327,308.609 253.833,308.681 253.833 C 308.754 253.833,308.864 254.172,308.926 254.585 C 308.988 254.999,309.105 255.378,309.186 255.429 C 309.267 255.479,309.333 255.631,309.333 255.768 C 309.333 255.904,309.609 256.593,309.947 257.299 C 310.284 258.006,310.547 258.640,310.530 258.708 C 310.514 258.777,310.569 258.833,310.654 258.833 C 310.738 258.833,310.894 259.096,311.000 259.417 C 311.106 259.737,311.266 260.000,311.356 260.000 C 311.446 260.000,311.479 260.067,311.428 260.148 C 311.378 260.229,311.449 260.388,311.585 260.502 C 311.722 260.615,311.833 260.811,311.833 260.937 C 311.833 261.063,311.912 261.167,312.009 261.167 C 312.105 261.167,312.260 261.386,312.354 261.653 C 312.447 261.921,312.635 262.183,312.772 262.235 C 312.909 262.288,312.982 262.394,312.934 262.472 C 312.886 262.549,313.205 263.000,313.642 263.473 C 314.079 263.946,314.410 264.333,314.377 264.333 C 314.345 264.333,314.659 264.679,315.076 265.102 C 315.492 265.525,315.833 265.937,315.833 266.019 C 315.833 266.100,315.946 266.167,316.083 266.167 C 316.221 266.167,316.333 266.279,316.333 266.417 C 316.333 266.554,316.394 266.667,316.468 266.667 C 316.543 266.667,316.824 266.879,317.093 267.138 C 317.769 267.787,319.475 269.128,320.417 269.749 C 321.308 270.337,321.571 270.487,322.333 270.837 C 322.746 271.026,323.196 271.250,323.333 271.334 C 323.985 271.732,325.438 272.412,325.730 272.457 C 325.910 272.484,326.145 272.579,326.252 272.669 C 326.360 272.758,326.497 272.781,326.557 272.721 C 326.617 272.660,326.667 272.699,326.667 272.806 C 326.667 272.912,326.723 272.987,326.792 272.972 C 327.037 272.917,328.167 273.206,328.167 273.324 C 328.167 273.390,328.260 273.450,328.375 273.457 C 328.570 273.468,329.556 273.677,330.500 273.907 C 330.729 273.963,331.179 274.039,331.500 274.077 C 331.821 274.115,332.646 274.228,333.333 274.329 C 334.756 274.538,338.152 274.535,339.463 274.324 C 339.948 274.246,340.808 274.135,341.376 274.077 C 341.944 274.019,342.523 273.911,342.663 273.838 C 342.802 273.765,343.238 273.652,343.631 273.587 C 344.023 273.522,344.548 273.367,344.797 273.244 C 345.046 273.120,345.500 272.975,345.805 272.921 C 346.110 272.868,346.528 272.713,346.735 272.578 C 346.941 272.443,347.160 272.382,347.222 272.444 C 347.283 272.505,347.333 272.474,347.333 272.374 C 347.333 272.275,347.577 272.141,347.875 272.077 C 348.173 272.014,348.492 271.902,348.583 271.830 C 348.675 271.758,349.350 271.384,350.083 271.000 C 351.717 270.143,353.000 269.324,353.000 269.139 C 353.000 269.062,353.062 269.019,353.139 269.042 C 353.494 269.148,357.368 265.628,358.500 264.169 C 358.729 263.873,359.016 263.527,359.137 263.399 C 359.258 263.271,359.319 263.167,359.271 263.167 C 359.224 263.167,359.409 262.923,359.682 262.625 C 360.398 261.844,362.355 258.508,362.223 258.292 C 362.181 258.223,362.225 258.167,362.320 258.167 C 362.416 258.167,362.539 257.987,362.594 257.768 C 362.649 257.549,362.875 257.011,363.097 256.573 C 363.319 256.135,363.500 255.651,363.500 255.497 C 363.500 255.344,363.611 254.996,363.746 254.725 C 363.881 254.453,364.015 254.085,364.043 253.907 C 364.070 253.729,364.133 253.508,364.182 253.417 C 364.231 253.325,364.258 253.083,364.242 252.879 C 364.226 252.676,364.269 252.543,364.337 252.586 C 364.406 252.628,364.515 252.237,364.580 251.717 C 364.645 251.197,364.766 250.593,364.850 250.374 C 365.354 249.047,365.146 241.348,364.558 239.612 C 364.491 239.413,364.454 239.125,364.476 238.973 C 364.498 238.821,364.437 238.648,364.341 238.588 C 364.245 238.529,364.167 238.296,364.167 238.071 C 364.167 237.528,363.788 236.333,363.616 236.333 C 363.541 236.333,363.527 236.258,363.584 236.165 C 363.641 236.073,363.570 235.879,363.426 235.735 C 363.282 235.591,363.206 235.404,363.258 235.320 C 363.310 235.236,363.236 234.942,363.093 234.667 C 362.950 234.392,362.717 233.942,362.574 233.667 C 362.431 233.392,362.368 233.167,362.433 233.167 C 362.498 233.167,362.433 233.035,362.289 232.875 C 362.144 232.715,362.002 232.473,361.971 232.337 C 361.919 232.101,361.846 231.991,361.368 231.422 C 361.250 231.282,361.206 231.167,361.269 231.167 C 361.333 231.167,361.261 231.029,361.109 230.861 C 360.957 230.694,360.883 230.506,360.944 230.445 C 361.005 230.383,360.968 230.333,360.861 230.333 C 360.754 230.333,360.667 230.237,360.667 230.120 C 360.667 230.003,360.521 229.802,360.342 229.673 C 360.164 229.545,360.046 229.393,360.081 229.336 C 360.116 229.280,359.887 228.900,359.572 228.492 C 359.256 228.084,358.830 227.527,358.624 227.254 C 357.834 226.208,354.500 223.000,354.202 223.000 C 354.131 223.000,353.965 222.850,353.833 222.667 C 353.701 222.483,353.502 222.333,353.390 222.333 C 353.279 222.333,352.948 222.115,352.656 221.849 C 352.365 221.582,351.854 221.226,351.521 221.057 C 351.189 220.888,350.879 220.711,350.833 220.663 C 350.690 220.515,347.185 218.833,347.018 218.833 C 346.931 218.833,346.648 218.729,346.389 218.602 C 345.462 218.147,344.602 217.898,342.583 217.499 C 342.033 217.390,341.283 217.215,340.917 217.109 C 339.957 216.832,332.876 216.854,331.583 217.137 C 329.551 217.583,328.412 217.884,328.235 218.022 C 328.135 218.100,328.015 218.126,327.969 218.080 C 327.922 218.033,327.592 218.123,327.234 218.279 C 326.876 218.435,326.546 218.574,326.500 218.587 C 326.454 218.600,326.192 218.673,325.917 218.749 C 325.278 218.925,324.120 219.512,323.961 219.741 C 323.894 219.838,323.837 219.859,323.836 219.788 C 323.834 219.717,323.665 219.770,323.458 219.905 C 323.252 220.040,323.046 220.147,323.000 220.143 C 322.666 220.114,320.335 221.551,320.194 221.873 C 320.164 221.943,320.049 222.000,319.940 222.000 C 319.716 222.000,317.790 223.488,316.702 224.501 C 315.998 225.156,315.610 225.313,315.426 225.015 C 315.375 224.932,314.902 224.732,314.375 224.571 C 313.848 224.410,313.342 224.226,313.250 224.162 C 313.158 224.098,312.633 223.911,312.083 223.746 C 311.533 223.580,310.993 223.376,310.882 223.292 C 310.772 223.207,310.609 223.182,310.522 223.237 C 310.434 223.291,310.336 223.259,310.305 223.166 C 310.274 223.073,310.077 222.964,309.866 222.923 C 309.655 222.882,309.260 222.738,308.989 222.603 C 308.717 222.467,308.542 222.434,308.601 222.529 C 308.660 222.624,308.530 222.593,308.312 222.460 C 308.095 222.328,307.598 222.120,307.208 222.000 C 306.819 221.879,306.500 221.709,306.500 221.622 C 306.500 221.535,306.390 221.507,306.255 221.558 C 306.121 221.610,305.970 221.587,305.921 221.507 C 305.872 221.428,305.532 221.312,305.166 221.250 C 304.800 221.188,304.500 221.080,304.500 221.011 C 304.500 220.875,302.951 220.333,302.564 220.333 C 302.437 220.333,302.333 220.250,302.333 220.147 C 302.333 220.045,302.187 219.999,302.008 220.046 C 301.829 220.093,301.660 220.082,301.633 220.021 C 301.589 219.924,300.681 219.586,297.750 218.575 C 297.292 218.417,296.729 218.211,296.500 218.116 C 296.271 218.022,296.008 217.923,295.917 217.897 C 295.825 217.871,295.450 217.737,295.083 217.599 C 294.717 217.461,294.285 217.345,294.125 217.341 C 293.965 217.337,293.833 217.265,293.833 217.181 C 293.833 217.098,293.515 216.977,293.125 216.912 C 292.735 216.848,292.342 216.739,292.250 216.670 C 292.104 216.559,290.894 216.114,290.667 216.088 C 290.621 216.082,290.133 215.920,289.583 215.728 C 287.816 215.108,286.423 214.642,286.167 214.584 C 286.029 214.553,285.635 214.407,285.292 214.261 C 284.948 214.115,284.667 214.049,284.667 214.114 C 284.667 214.180,284.577 214.143,284.467 214.033 C 284.357 213.923,284.111 213.833,283.920 213.833 C 283.730 213.833,283.426 213.735,283.245 213.615 C 283.065 213.495,282.617 213.310,282.250 213.204 C 281.883 213.098,281.396 212.956,281.167 212.889 C 280.938 212.822,280.712 212.762,280.667 212.756 C 280.552 212.742,279.526 212.342,278.891 212.064 C 278.603 211.937,278.265 211.831,278.141 211.828 C 277.904 211.822,276.367 211.311,276.083 211.144 C 275.992 211.090,275.748 211.060,275.542 211.078 C 275.335 211.096,275.167 211.048,275.167 210.972 C 275.167 210.896,274.975 210.833,274.740 210.833 C 274.498 210.833,274.358 210.761,274.417 210.667 C 274.473 210.575,274.388 210.500,274.228 210.500 C 273.907 210.500,271.061 209.610,270.225 209.248 C 269.936 209.124,269.418 208.969,269.074 208.904 C 268.730 208.839,268.253 208.685,268.016 208.561 C 267.778 208.437,267.461 208.335,267.312 208.334 C 267.163 208.334,266.769 208.220,266.438 208.081 C 266.106 207.943,265.798 207.828,265.753 207.827 C 265.707 207.825,265.576 207.791,265.460 207.751 C 264.127 207.284,262.597 206.848,262.529 206.916 C 262.482 206.963,262.287 206.900,262.097 206.776 C 261.906 206.652,261.450 206.495,261.083 206.427 C 260.717 206.359,260.342 206.243,260.250 206.168 C 260.111 206.055,259.022 205.703,258.417 205.575 C 258.325 205.556,257.717 205.381,257.065 205.187 C 256.414 204.992,255.764 204.833,255.621 204.833 C 255.478 204.833,255.336 204.765,255.306 204.682 C 255.275 204.598,255.025 204.493,254.750 204.448 C 254.475 204.403,254.044 204.286,253.792 204.187 C 253.540 204.089,253.332 204.063,253.331 204.129 C 253.329 204.196,253.272 204.161,253.203 204.053 C 253.134 203.944,252.891 203.824,252.664 203.786 C 252.436 203.749,252.137 203.676,252.000 203.626 C 251.785 203.546,250.889 203.284,248.750 202.674 C 248.475 202.596,247.500 202.301,246.583 202.018 C 245.667 201.736,244.767 201.481,244.583 201.453 C 244.400 201.424,244.084 201.309,243.882 201.198 C 243.679 201.087,243.454 201.010,243.382 201.027 C 243.272 201.054,242.974 200.976,241.667 200.581 C 241.621 200.567,241.358 200.501,241.083 200.433 C 240.808 200.366,240.400 200.235,240.176 200.144 C 239.792 199.987,238.496 199.676,238.042 199.632 C 237.927 199.620,237.833 199.536,237.833 199.444 C 237.833 199.353,237.790 199.321,237.737 199.374 C 237.685 199.426,237.403 199.396,237.112 199.307 C 236.821 199.218,236.508 199.125,236.417 199.101 C 236.325 199.077,235.850 198.934,235.361 198.783 C 234.872 198.633,234.422 198.519,234.361 198.531 C 234.254 198.552,234.140 198.517,233.417 198.236 C 233.233 198.165,232.971 198.091,232.833 198.071 C 232.413 198.011,231.337 197.725,229.417 197.162 C 228.408 196.867,227.508 196.608,227.417 196.588 C 227.325 196.567,227.137 196.508,227.000 196.455 C 226.862 196.403,226.563 196.322,226.333 196.275 C 226.104 196.228,225.617 196.104,225.250 195.999 C 224.883 195.894,224.452 195.809,224.292 195.810 C 224.131 195.812,224.000 195.758,224.000 195.692 C 224.000 195.625,223.767 195.553,223.481 195.531 C 223.196 195.510,222.831 195.421,222.670 195.335 C 222.509 195.249,222.330 195.226,222.272 195.284 C 222.214 195.342,222.167 195.301,222.167 195.194 C 222.167 195.088,221.947 195.000,221.678 195.000 C 221.408 195.000,220.977 194.918,220.719 194.818 C 220.461 194.717,220.100 194.615,219.917 194.590 C 219.733 194.566,219.246 194.452,218.834 194.339 C 218.422 194.225,217.972 194.104,217.834 194.071 C 217.696 194.037,217.283 193.925,216.917 193.821 C 216.550 193.717,216.088 193.621,215.891 193.608 C 215.693 193.594,215.567 193.527,215.609 193.458 C 215.652 193.390,215.533 193.333,215.346 193.333 C 215.159 193.333,214.161 193.101,213.128 192.817 C 212.095 192.534,211.081 192.299,210.875 192.297 C 210.669 192.294,210.500 192.242,210.500 192.181 C 210.500 192.121,210.277 192.054,210.005 192.033 C 209.733 192.012,209.301 191.911,209.047 191.808 C 208.792 191.705,208.283 191.561,207.917 191.488 C 207.550 191.415,206.650 191.196,205.917 191.001 C 205.183 190.807,204.210 190.570,203.754 190.476 C 203.297 190.382,202.782 190.228,202.609 190.136 C 202.368 190.007,202.324 190.016,202.422 190.176 C 202.514 190.325,202.484 190.343,202.317 190.239 C 202.189 190.158,202.008 190.075,201.917 190.053 C 201.825 190.031,201.469 189.943,201.125 189.857 C 200.781 189.772,200.499 189.750,200.497 189.809 C 200.496 189.868,200.440 189.837,200.372 189.739 C 200.305 189.642,199.800 189.473,199.250 189.365 C 198.700 189.257,198.100 189.136,197.917 189.098 C 197.733 189.060,197.246 188.976,196.833 188.913 C 196.421 188.849,196.001 188.730,195.899 188.648 C 195.798 188.567,195.536 188.506,195.316 188.515 C 194.879 188.531,194.026 188.369,193.793 188.225 C 193.712 188.175,193.407 188.101,193.115 188.060 C 192.822 188.020,192.171 187.903,191.667 187.802 C 191.162 187.700,190.563 187.597,190.333 187.572 C 189.652 187.499,187.783 187.155,187.664 187.081 C 187.603 187.044,187.036 186.966,186.405 186.909 C 185.773 186.852,185.180 186.755,185.086 186.694 C 184.993 186.633,184.654 186.575,184.333 186.565 C 184.012 186.555,183.637 186.502,183.500 186.447 C 183.134 186.301,181.412 186.019,180.167 185.902 C 178.778 185.771,178.765 185.769,178.667 185.648 C 178.621 185.592,178.058 185.502,177.417 185.448 C 176.775 185.394,175.667 185.234,174.955 185.094 C 174.243 184.953,173.493 184.850,173.288 184.865 C 173.084 184.880,172.542 184.808,172.083 184.704 C 171.206 184.506,167.946 184.056,166.250 183.900 C 165.700 183.849,165.025 183.741,164.750 183.659 C 164.475 183.577,163.725 183.469,163.083 183.418 C 162.442 183.367,161.692 183.277,161.417 183.219 C 160.720 183.072,160.469 183.044,158.630 182.906 C 157.739 182.839,157.044 182.731,157.085 182.664 C 157.126 182.598,156.800 182.535,156.360 182.525 C 155.920 182.515,155.003 182.424,154.322 182.323 C 153.641 182.221,152.671 182.105,152.167 182.066 C 151.662 182.026,150.537 181.887,149.667 181.757 C 148.796 181.628,147.146 181.432,146.000 181.322 C 144.854 181.213,143.804 181.104,143.667 181.080 C 143.529 181.057,142.779 180.983,142.000 180.916 C 139.898 180.736,139.917 180.738,139.718 180.615 C 139.616 180.552,139.357 180.508,139.142 180.516 C 138.392 180.545,135.913 180.317,135.417 180.173 C 135.142 180.094,134.692 180.026,134.417 180.024 C 134.142 180.021,132.717 179.905,131.250 179.767 C 129.783 179.628,127.833 179.467,126.917 179.409 C 126.000 179.350,125.063 179.265,124.833 179.219 C 124.604 179.173,124.117 179.113,123.750 179.087 C 123.383 179.060,122.558 178.992,121.917 178.935 C 121.275 178.878,120.225 178.790,119.583 178.740 C 118.942 178.689,118.154 178.617,117.833 178.580 C 117.513 178.543,116.507 178.468,115.598 178.412 C 114.689 178.357,113.679 178.277,113.353 178.235 C 112.637 178.144,110.271 178.003,107.667 177.896 C 106.612 177.853,105.525 177.747,105.250 177.661 C 104.975 177.575,104.337 177.515,103.833 177.528 C 103.329 177.541,102.129 177.498,101.167 177.433 C 97.827 177.208,96.907 177.156,95.000 177.084 C 93.946 177.044,92.873 176.973,92.617 176.925 C 92.275 176.862,92.183 176.894,92.274 177.044 C 92.368 177.201,92.340 177.205,92.157 177.064 C 92.017 176.956,90.665 176.824,88.917 176.749 C 87.267 176.678,85.542 176.599,85.083 176.574 C 84.625 176.549,82.563 176.484,80.500 176.429 C 78.438 176.374,75.587 176.289,74.167 176.240 C 69.870 176.091,66.735 176.021,59.667 175.915 C 49.310 175.760,47.150 175.705,47.043 175.599 C 46.989 175.544,46.901 175.516,46.847 175.536 C 46.794 175.555,45.906 175.595,44.875 175.624 " stroke="none" fill="#d43c2c" fill-rule="evenodd"></path><path id="path2" d="M42.372 107.833 C 42.372 108.154,42.406 108.285,42.448 108.125 C 42.490 107.965,42.490 107.702,42.448 107.542 C 42.406 107.381,42.372 107.513,42.372 107.833 M44.375 131.615 C 44.535 131.657,44.798 131.657,44.958 131.615 C 45.119 131.573,44.987 131.539,44.667 131.539 C 44.346 131.539,44.215 131.573,44.375 131.615 M42.388 198.750 C 42.389 199.392,42.419 199.634,42.455 199.288 C 42.491 198.942,42.490 198.417,42.454 198.121 C 42.417 197.825,42.387 198.108,42.388 198.750 " stroke="none" fill="#d4442c" fill-rule="evenodd"></path><path id="path3" d="" stroke="none" fill="#4074c8" fill-rule="evenodd"></path><path id="path4" d="M43.294 131.618 C 43.501 131.658,43.801 131.656,43.960 131.615 C 44.120 131.573,43.950 131.540,43.583 131.542 C 43.217 131.544,43.086 131.578,43.294 131.618 M43.208 175.615 C 43.369 175.657,43.631 175.657,43.792 175.615 C 43.952 175.573,43.821 175.539,43.500 175.539 C 43.179 175.539,43.048 175.573,43.208 175.615 " stroke="none" fill="#a4747c" fill-rule="evenodd"></path><path id="path5" d="M313.500 171.315 C 313.500 171.473,314.314 172.250,314.380 172.153 C 314.406 172.115,314.218 171.882,313.964 171.636 C 313.709 171.389,313.500 171.245,313.500 171.315 " stroke="none" fill="#d83c2c" fill-rule="evenodd"></path></g></svg>